# xmcd
#
# Track frame offsets: 
#        150
#        32830
#        52857
#        77519
#        97099
#        118399
#        144999
#        169167
#        187146
#        195089
#        211944
#        230290
#        250401
#
# Disc length: 3976 seconds
#
# Revision: 0
# Processed by: cddbd v1.5.2PL0 Copyright (c) Steve Scherf et al.
# Submitted via: ExactAudioCopy v0.95b3
#
DISCID=ae0f860d
DTITLE=Jimi Hendrix  - The Captain Coconut Experience - Disc 2
DYEAR=1900
DGENRE=
TTITLE0=Peace In Mississippi (4)
TTITLE1=Peace In Mississippi (5)
TTITLE2=Peace In Mississippi (6)
TTITLE3=Peace In Mississippi (7)
TTITLE4=Peace In Mississippi (8)
TTITLE5=Power Of Soul (36)
TTITLE6=Power Of Soul (50)
TTITLE7=Power Of Soul (51)
TTITLE8=Power Of Soul (52)
TTITLE9=Stone Free (5)
TTITLE10=Stone Free (29)
TTITLE11=Captain Coconut (4)
TTITLE12=Captain Coconut (2)
EXTD=
EXTT0=
EXTT1=
EXTT2=
EXTT3=
EXTT4=
EXTT5=
EXTT6=
EXTT7=
EXTT8=
EXTT9=
EXTT10=
EXTT11=
EXTT12=
PLAYORDER=
